<svg id="Layer_1" data-name="Layer 1" xmlns="http://www.w3.org/2000/svg" viewBox="0 0 24 24"><defs><style>.cls-1{fill:#6057b8;fill-rule:evenodd;}</style></defs><path class="cls-1" d="M16,24H3.39A34.25,34.25,0,0,0,4,18.31a4.52,4.52,0,0,0-.54-2.1A12.37,12.37,0,0,1,1,8.78C1.23,3.57,5.7,0,11.14,0c5.09,0,8.5,3,9.85,7.48a3,3,0,0,1-.15,2.61h0l1.75,2.14A2.21,2.21,0,0,1,23,13.48a1.9,1.9,0,0,1-.61,1.4,3.45,3.45,0,0,1-1.25.64,33.84,33.84,0,0,1-.87,3.3c-.7,1.64-2,1.66-3,1.85-.39.08-.49.13-.68.68A25.28,25.28,0,0,0,16,24M11.15,2C6.87,2.05,3.41,4.55,3,8.49a9.39,9.39,0,0,0,1.52,5.7A6.48,6.48,0,0,1,6,18.07,18.5,18.5,0,0,1,5.77,22h8.61a7.67,7.67,0,0,1,.68-2.06A2.59,2.59,0,0,1,17,18.69c.84-.15,1.24-.06,1.49-.79a23.23,23.23,0,0,0,.83-3.9A9.33,9.33,0,0,0,21,13.44c-.21-.23-1.92-2.31-2-2.6-.34-.76-.05-1.19.22-1.91a.81.81,0,0,0,0-.61c-1-3.95-3.89-6.32-8-6.32m.52,3c.25.68.32,1.12.85,1.34h0c.53.22.89,0,1.54-.35l.95,1c-.31.65-.57,1-.35,1.54h0c.22.53.65.6,1.34.85v1.34c-.68.25-1.12.32-1.34.85s0,.89.35,1.54l-.95.95c-.66-.31-1-.57-1.54-.35h0c-.53.22-.6.66-.85,1.34H10.33c-.25-.68-.32-1.12-.84-1.34h0c-.53-.22-.89,0-1.54.35l-1-.95c.3-.64.57-1,.35-1.55s-.66-.59-1.34-.84V9.33c.68-.25,1.12-.32,1.34-.85s0-.89-.35-1.54l1-1c.66.31,1,.57,1.54.35h0c.52-.22.59-.66.84-1.34ZM11,11.67A1.67,1.67,0,1,1,12.67,10,1.67,1.67,0,0,1,11,11.67"/></svg>